<svg width="143" height="74" viewBox="0 0 143 74" fill="none" xmlns="http://www.w3.org/2000/svg">
<path d="M21.1697 58.528C19.6118 58.5298 18.1184 59.1495 17.0168 60.2511C15.9153 61.3526 15.2956 62.8462 15.2937 64.404C15.2956 65.9619 15.9153 67.4554 17.0168 68.5569C18.1184 69.6585 19.6118 70.2781 21.1697 70.28C22.7275 70.2781 24.2211 69.6585 25.3226 68.5569C26.4242 67.4554 27.0439 65.9619 27.0458 64.404C27.0439 62.8462 26.4242 61.3526 25.3226 60.2511C24.2211 59.1495 22.7275 58.5298 21.1697 58.528ZM21.1697 70.087C19.6631 70.0854 18.2187 69.4863 17.1533 68.4211C16.0879 67.3559 15.4885 65.9116 15.4867 64.405C15.4885 62.8984 16.0879 61.4541 17.1533 60.3889C18.2187 59.3237 19.6631 58.7246 21.1697 58.723C22.6761 58.7248 24.1202 59.3241 25.1854 60.3893C26.2506 61.4544 26.8498 62.8986 26.8517 64.405C26.8498 65.9114 26.2506 67.3556 25.1854 68.4207C24.1202 69.4859 22.6761 70.0852 21.1697 70.087Z" fill="#FFBC00" stroke="#FFBC00"/>
<path d="M21.1708 61.599C20.4282 61.599 19.7159 61.894 19.1908 62.4191C18.6657 62.9442 18.3707 63.6564 18.3707 64.399C18.3707 65.1416 18.6657 65.8538 19.1908 66.3789C19.7159 66.904 20.4282 67.199 21.1708 67.199C21.9138 67.199 22.6264 66.9041 23.1523 66.3792C23.6782 65.8542 23.9744 65.1421 23.9757 64.399C23.9744 63.656 23.6782 62.9438 23.1523 62.4188C22.6264 61.8938 21.9138 61.599 21.1708 61.599Z" fill="#FFBC00" stroke="#FFBC00"/>
<path d="M21.1147 60.839C21.2255 60.839 21.3319 60.795 21.4103 60.7166C21.4887 60.6382 21.5327 60.5319 21.5327 60.421C21.5327 60.3101 21.4887 60.2038 21.4103 60.1255C21.3319 60.0471 21.2255 60.003 21.1147 60.003C21.0038 60.003 20.8975 60.0471 20.8192 60.1255C20.7408 60.2038 20.6967 60.3101 20.6967 60.421C20.6967 60.5319 20.7408 60.6382 20.8192 60.7166C20.8975 60.795 21.0038 60.839 21.1147 60.839Z" fill="#FFBC00" stroke="#FFBC00"/>
<path d="M21.1147 67.969C21.0038 67.969 20.8975 68.013 20.8192 68.0914C20.7408 68.1698 20.6967 68.2761 20.6967 68.387C20.6967 68.4979 20.7408 68.6042 20.8192 68.6826C20.8975 68.761 21.0038 68.805 21.1147 68.805C21.2255 68.805 21.3319 68.761 21.4103 68.6826C21.4887 68.6042 21.5327 68.4979 21.5327 68.387C21.5327 68.2761 21.4887 68.1698 21.4103 68.0914C21.3319 68.013 21.2255 67.969 21.1147 67.969Z" fill="#FFBC00" stroke="#FFBC00"/>
<path d="M17.1317 64.822C17.3625 64.822 17.5497 64.6348 17.5497 64.404C17.5497 64.1731 17.3625 63.986 17.1317 63.986C16.9008 63.986 16.7137 64.1731 16.7137 64.404C16.7137 64.6348 16.9008 64.822 17.1317 64.822Z" fill="#FFBC00" stroke="#FFBC00"/>
<path d="M24.6807 64.404C24.6807 64.5149 24.7247 64.6212 24.8031 64.6996C24.8815 64.778 24.9878 64.822 25.0986 64.822C25.2094 64.8218 25.3156 64.7776 25.3939 64.6993C25.4723 64.6209 25.5165 64.5148 25.5167 64.404C25.5167 64.2931 25.4727 64.1868 25.3943 64.1084C25.3159 64.03 25.2095 63.986 25.0986 63.986C24.9878 63.986 24.8815 64.03 24.8031 64.1084C24.7247 64.1868 24.6807 64.2931 24.6807 64.404Z" fill="#FFBC00" stroke="#FFBC00"/>
<path d="M23.9307 62.005C24.1616 62.005 24.3487 61.8179 24.3487 61.587C24.3487 61.3562 24.1616 61.169 23.9307 61.169C23.6998 61.169 23.5127 61.3562 23.5127 61.587C23.5127 61.8179 23.6998 62.005 23.9307 62.005Z" fill="#FFBC00" stroke="#FFBC00"/>
<path d="M18.2987 67.638C18.5295 67.638 18.7167 67.4509 18.7167 67.22C18.7167 66.9891 18.5295 66.802 18.2987 66.802C18.0678 66.802 17.8807 66.9891 17.8807 67.22C17.8807 67.4509 18.0678 67.638 18.2987 67.638Z" fill="#FFBC00" stroke="#FFBC00"/>
<path d="M18.2977 62.005C18.5286 62.005 18.7157 61.8179 18.7157 61.587C18.7157 61.3562 18.5286 61.169 18.2977 61.169C18.0668 61.169 17.8797 61.3562 17.8797 61.587C17.8797 61.8179 18.0668 62.005 18.2977 62.005Z" fill="#FFBC00" stroke="#FFBC00"/>
<path d="M23.9307 67.638C24.1616 67.638 24.3487 67.4509 24.3487 67.22C24.3487 66.9891 24.1616 66.802 23.9307 66.802C23.6998 66.802 23.5127 66.9891 23.5127 67.22C23.5127 67.4509 23.6998 67.638 23.9307 67.638Z" fill="#FFBC00" stroke="#FFBC00"/>
<path d="M86.3456 58.528C84.7878 58.5298 83.2944 59.1495 82.1928 60.2511C81.0912 61.3526 80.4715 62.8462 80.4697 64.404C80.4715 65.9619 81.0912 67.4554 82.1928 68.5569C83.2944 69.6585 84.7878 70.2781 86.3456 70.28C87.9035 70.2781 89.397 69.6585 90.4986 68.5569C91.6002 67.4554 92.2199 65.9619 92.2217 64.404C92.2199 62.8462 91.6002 61.3526 90.4986 60.2511C89.397 59.1495 87.9035 58.5298 86.3456 58.528ZM86.3456 70.087C84.8393 70.0852 83.3951 69.4859 82.3299 68.4207C81.2647 67.3556 80.6655 65.9114 80.6636 64.405C80.6655 62.8986 81.2647 61.4544 82.3299 60.3893C83.3951 59.3241 84.8393 58.7248 86.3456 58.723C87.8522 58.7246 89.2967 59.3237 90.3621 60.3889C91.4275 61.4541 92.0268 62.8984 92.0286 64.405C92.0268 65.9116 91.4275 67.3559 90.3621 68.4211C89.2967 69.4863 87.8522 70.0854 86.3456 70.087Z" fill="#FFBC00" stroke="#FFBC00"/>
<path d="M86.3457 61.599C85.6031 61.599 84.8909 61.894 84.3658 62.4191C83.8407 62.9442 83.5457 63.6564 83.5457 64.399C83.5457 65.1416 83.8407 65.8538 84.3658 66.3789C84.8909 66.904 85.6031 67.199 86.3457 67.199C87.0883 67.199 87.8005 66.904 88.3256 66.3789C88.8507 65.8538 89.1458 65.1416 89.1458 64.399C89.1458 63.6564 88.8507 62.9442 88.3256 62.4191C87.8005 61.894 87.0883 61.599 86.3457 61.599Z" fill="#FFBC00" stroke="#FFBC00"/>
<path d="M86.2907 60.839C86.4016 60.839 86.5079 60.795 86.5862 60.7166C86.6646 60.6382 86.7087 60.5319 86.7087 60.421C86.7087 60.3101 86.6646 60.2038 86.5862 60.1255C86.5079 60.0471 86.4016 60.003 86.2907 60.003C86.1798 60.003 86.0736 60.0471 85.9952 60.1255C85.9168 60.2038 85.8727 60.3101 85.8727 60.421C85.8727 60.5319 85.9168 60.6382 85.9952 60.7166C86.0736 60.795 86.1798 60.839 86.2907 60.839Z" fill="#FFBC00" stroke="#FFBC00"/>
<path d="M86.2907 67.969C86.1798 67.969 86.0736 68.013 85.9952 68.0914C85.9168 68.1698 85.8727 68.2761 85.8727 68.387C85.8727 68.4979 85.9168 68.6042 85.9952 68.6826C86.0736 68.761 86.1798 68.805 86.2907 68.805C86.4016 68.805 86.5079 68.761 86.5862 68.6826C86.6646 68.6042 86.7087 68.4979 86.7087 68.387C86.7087 68.2761 86.6646 68.1698 86.5862 68.0914C86.5079 68.013 86.4016 67.969 86.2907 67.969Z" fill="#FFBC00" stroke="#FFBC00"/>
<path d="M82.3067 63.986C82.1958 63.986 82.0894 64.03 82.011 64.1084C81.9327 64.1868 81.8887 64.2931 81.8887 64.404C81.8887 64.5149 81.9327 64.6212 82.011 64.6996C82.0894 64.778 82.1958 64.822 82.3067 64.822C82.4176 64.822 82.5238 64.778 82.6022 64.6996C82.6806 64.6212 82.7247 64.5149 82.7247 64.404C82.7247 64.2931 82.6806 64.1868 82.6022 64.1084C82.5238 64.03 82.4176 63.986 82.3067 63.986Z" fill="#FFBC00" stroke="#FFBC00"/>
<path d="M90.2727 64.822C90.5035 64.822 90.6907 64.6348 90.6907 64.404C90.6907 64.1731 90.5035 63.986 90.2727 63.986C90.0418 63.986 89.8547 64.1731 89.8547 64.404C89.8547 64.6348 90.0418 64.822 90.2727 64.822Z" fill="#FFBC00" stroke="#FFBC00"/>
<path d="M89.1067 62.005C89.3376 62.005 89.5247 61.8179 89.5247 61.587C89.5247 61.3562 89.3376 61.169 89.1067 61.169C88.8759 61.169 88.6887 61.3562 88.6887 61.587C88.6887 61.8179 88.8759 62.005 89.1067 62.005Z" fill="#FFBC00" stroke="#FFBC00"/>
<path d="M83.4737 67.638C83.7046 67.638 83.8917 67.4509 83.8917 67.22C83.8917 66.9891 83.7046 66.802 83.4737 66.802C83.2429 66.802 83.0557 66.9891 83.0557 67.22C83.0557 67.4509 83.2429 67.638 83.4737 67.638Z" fill="#FFBC00" stroke="#FFBC00"/>
<path d="M83.4737 62.005C83.7046 62.005 83.8917 61.8179 83.8917 61.587C83.8917 61.3562 83.7046 61.169 83.4737 61.169C83.2429 61.169 83.0557 61.3562 83.0557 61.587C83.0557 61.8179 83.2429 62.005 83.4737 62.005Z" fill="#FFBC00" stroke="#FFBC00"/>
<path d="M89.1067 67.638C89.3376 67.638 89.5247 67.4509 89.5247 67.22C89.5247 66.9891 89.3376 66.802 89.1067 66.802C88.8759 66.802 88.6887 66.9891 88.6887 67.22C88.6887 67.4509 88.8759 67.638 89.1067 67.638Z" fill="#FFBC00" stroke="#FFBC00"/>
<path d="M110.727 58.528C109.168 58.5296 107.675 59.1493 106.573 60.2511C105.471 61.3529 104.851 62.8468 104.85 64.405C104.852 65.9628 105.471 67.4563 106.573 68.5579C107.674 69.6595 109.168 70.2791 110.726 70.281C112.283 70.2791 113.777 69.6595 114.879 68.5579C115.98 67.4563 116.6 65.9628 116.602 64.405C116.6 62.8472 115.981 61.3536 114.879 60.2518C113.778 59.1501 112.284 58.5301 110.727 58.528ZM110.727 70.087C109.22 70.0852 107.776 69.4859 106.711 68.4207C105.646 67.3556 105.047 65.9114 105.045 64.405C105.047 62.8986 105.646 61.4544 106.711 60.3893C107.776 59.3241 109.22 58.7248 110.727 58.723C112.233 58.7248 113.677 59.3241 114.742 60.3893C115.808 61.4544 116.407 62.8986 116.409 64.405C116.407 65.9114 115.808 67.3556 114.742 68.4207C113.677 69.4859 112.233 70.0852 110.727 70.087Z" fill="#FFBC00" stroke="#FFBC00"/>
<path d="M110.728 67.209C112.277 67.209 113.533 65.9532 113.533 64.404C113.533 62.8548 112.277 61.599 110.728 61.599C109.179 61.599 107.923 62.8548 107.923 64.404C107.923 65.9532 109.179 67.209 110.728 67.209Z" fill="#FFBC00" stroke="#FFBC00"/>
<path d="M110.672 60.839C110.783 60.839 110.889 60.795 110.967 60.7166C111.046 60.6382 111.09 60.5319 111.09 60.421C111.09 60.3101 111.046 60.2038 110.967 60.1255C110.889 60.0471 110.783 60.003 110.672 60.003C110.561 60.003 110.455 60.0471 110.376 60.1255C110.298 60.2038 110.254 60.3101 110.254 60.421C110.254 60.5319 110.298 60.6382 110.376 60.7166C110.455 60.795 110.561 60.839 110.672 60.839Z" fill="#FFBC00" stroke="#FFBC00"/>
<path d="M110.672 67.969C110.561 67.969 110.455 68.013 110.376 68.0914C110.298 68.1698 110.254 68.2761 110.254 68.387C110.254 68.4979 110.298 68.6042 110.376 68.6826C110.455 68.761 110.561 68.805 110.672 68.805C110.783 68.805 110.889 68.761 110.967 68.6826C111.046 68.6042 111.09 68.4979 111.09 68.387C111.089 68.2762 111.045 68.17 110.967 68.0917C110.889 68.0134 110.782 67.9692 110.672 67.969Z" fill="#FFBC00" stroke="#FFBC00"/>
<path d="M106.688 64.822C106.919 64.822 107.106 64.6348 107.106 64.404C107.106 64.1731 106.919 63.986 106.688 63.986C106.457 63.986 106.27 64.1731 106.27 64.404C106.27 64.6348 106.457 64.822 106.688 64.822Z" fill="#FFBC00" stroke="#FFBC00"/>
<path d="M114.236 64.404C114.236 64.5149 114.28 64.6212 114.358 64.6996C114.437 64.778 114.543 64.822 114.654 64.822C114.765 64.822 114.871 64.778 114.949 64.6996C115.028 64.6212 115.072 64.5149 115.072 64.404C115.072 64.2931 115.028 64.1868 114.949 64.1084C114.871 64.03 114.765 63.986 114.654 63.986C114.543 63.986 114.437 64.03 114.358 64.1084C114.28 64.1868 114.236 64.2931 114.236 64.404Z" fill="#FFBC00" stroke="#FFBC00"/>
<path d="M113.488 62.005C113.719 62.005 113.906 61.8179 113.906 61.587C113.906 61.3562 113.719 61.169 113.488 61.169C113.257 61.169 113.07 61.3562 113.07 61.587C113.07 61.8179 113.257 62.005 113.488 62.005Z" fill="#FFBC00" stroke="#FFBC00"/>
<path d="M107.56 66.924C107.481 67.0024 107.437 67.1087 107.437 67.2195C107.437 67.3303 107.481 67.4366 107.56 67.515C107.638 67.5933 107.744 67.6374 107.855 67.6374C107.966 67.6374 108.072 67.5933 108.151 67.515C108.229 67.4365 108.273 67.3303 108.273 67.2195C108.273 67.1088 108.229 67.0025 108.151 66.924C108.072 66.8456 107.966 66.8016 107.855 66.8016C107.744 66.8016 107.638 66.8456 107.56 66.924Z" fill="#FFBC00" stroke="#FFBC00"/>
<path d="M108.151 61.883C108.229 61.8046 108.273 61.6983 108.273 61.5875C108.273 61.4766 108.229 61.3704 108.151 61.292C108.072 61.2136 107.966 61.1696 107.855 61.1696C107.744 61.1696 107.638 61.2136 107.56 61.292C107.481 61.3704 107.437 61.4766 107.437 61.5875C107.437 61.6983 107.481 61.8046 107.56 61.883C107.638 61.9613 107.744 62.0054 107.855 62.0054C107.966 62.0054 108.072 61.9613 108.151 61.883Z" fill="#FFBC00" stroke="#FFBC00"/>
<path d="M113.488 67.638C113.719 67.638 113.906 67.4509 113.906 67.22C113.906 66.9891 113.719 66.802 113.488 66.802C113.257 66.802 113.07 66.9891 113.07 67.22C113.07 67.4509 113.257 67.638 113.488 67.638Z" fill="#FFBC00" stroke="#FFBC00"/>
<path d="M136.717 61.5809L134.977 58.303C134.836 57.9313 134.555 57.6298 134.194 57.4639C134.017 57.4203 133.833 57.4176 133.656 57.4559C133.596 57.4659 133.537 57.4779 133.478 57.4899L131.378 57.912C131.214 57.9248 131.055 57.9744 130.913 58.0572C130.77 58.1399 130.649 58.2537 130.557 58.39C130.385 58.7792 130.359 59.2172 130.484 59.624C130.738 60.995 130.938 62.313 131.192 63.684C131.227 64.1086 131.346 64.522 131.543 64.9C131.651 65.0317 131.788 65.137 131.943 65.2079C132.165 65.3249 132.414 65.3817 132.665 65.3727C132.917 65.3638 133.161 65.2895 133.375 65.157L136.324 63.728C136.539 63.642 136.733 63.5107 136.893 63.343C136.985 63.216 137.049 63.0703 137.08 62.9161C137.111 62.7619 137.108 62.6028 137.071 62.45C136.996 62.1445 136.877 61.8516 136.717 61.5809Z" fill="#FFBC00" stroke="#FFBC00"/>
<path d="M3.96975 41.394L15.3906 37.053C16.3193 36.7766 17.2707 36.5834 18.2337 36.476C19.0617 36.476 19.7387 36.176 19.8397 35.36C19.9407 34.544 20.6557 27.645 20.6557 27.645C20.6557 27.645 20.9556 26.792 19.5886 26.792C18.2216 26.792 8.92568 27.482 8.92568 27.482C8.40132 27.5446 7.90641 27.7581 7.50112 28.0966C7.09583 28.4352 6.79765 28.8842 6.64272 29.389C6.00272 31.208 3.73171 40.506 3.73171 40.506C3.73171 40.506 3.46775 41.394 3.96975 41.394Z" fill="#FFBC00" stroke="#FFBC00"/>
<path d="M141.588 55.642C141.587 55.625 141.582 55.6084 141.572 55.5941C141.563 55.5799 141.55 55.5684 141.535 55.561L129.405 49.782L118.773 34.282H119.151L120.087 32.44H119.487V21.268H109.838L99.7708 6.595L98.3327 6.00299L97.3217 4.50299L97.0047 4.63501L93.9268 0.266998L93.2768 0L90.6768 2.10001L89.1668 4.716C89.1125 5.03308 89.1547 5.35915 89.2878 5.65201C89.3688 5.84501 89.6698 5.99399 90.0218 6.10599L91.0218 8.28299L82.5547 17.392C74.1157 17.418 58.8378 17.47 58.5008 17.471C57.5502 17.4858 56.6384 17.8512 55.9407 18.497C55.2297 19.2438 54.8423 20.2411 54.8627 21.272H50.0717V22.027H50.8718V29.232L52.5307 32.447H52.3307L53.2668 34.289H53.4798L54.8508 36.946V40.685C54.8527 41.4454 55.0974 42.1853 55.5492 42.7969C56.0011 43.4085 56.6364 43.8598 57.3627 44.085L58.8388 44.672L59.1917 45.356H60.5588L60.8398 45.468V45.921H49.7828L46.0318 22.865C46.0288 22.8457 46.0197 22.8278 46.0058 22.814L45.6547 22.463C45.646 22.4544 45.6358 22.4476 45.6244 22.4429C45.6131 22.4383 45.601 22.4359 45.5888 22.436H43.6497C43.626 22.436 43.6033 22.4449 43.586 22.4611C43.5687 22.4773 43.5582 22.4994 43.5567 22.523L43.4097 24.805C43.1583 25.3237 42.7722 25.7654 42.2918 26.084C42.2805 26.0925 42.2712 26.1036 42.2648 26.1162C42.2584 26.1289 42.2549 26.1428 42.2547 26.157L42.0547 40.723H40.0917C39.9658 40.7234 39.8413 40.7498 39.726 40.8006C39.6107 40.8513 39.5072 40.9254 39.4218 41.018C38.6868 41.767 38.6397 43.742 38.6397 44.211H36.7088L36.5147 46.795H35.9367L35.1208 42.473L35.2797 42.463L35.2878 42.385C35.3498 41.785 36.7877 27.607 35.8007 26.067C34.8657 24.605 31.6647 24.367 31.1657 24.338C31.1557 24.3119 31.1415 24.2876 31.1237 24.266C30.9967 24.112 30.6858 24.034 30.1988 24.034C29.2588 24.034 11.7927 24.498 11.6137 24.502C10.6513 24.6141 9.72463 24.9327 8.89678 25.436C7.39391 26.2709 6.17863 27.5408 5.41069 29.079C4.97969 30.271 2.35772 38.434 2.33672 38.503L1.68474 39.803L1.42571 40.803C0.792621 44.7062 0.491641 48.656 0.525806 52.61C0.523789 52.6939 0.550343 52.776 0.601245 52.8427C0.652148 52.9094 0.724265 52.9568 0.805713 52.977V53.599L1.8748 53.733V54.347L0.805713 54.698V64.04L2.1928 64.919L9.21172 65.136H9.23979L9.9157 64.736V64.582C9.9157 64.545 9.9157 64.507 9.9157 64.469L12.0667 63.669C12.0477 63.911 12.0347 64.155 12.0347 64.402C12.0374 66.8245 13.0008 69.1469 14.7138 70.8599C16.4267 72.5728 18.7493 73.5364 21.1718 73.539C23.0125 73.5367 24.8096 72.9792 26.3285 71.9395C27.8475 70.8998 29.0174 69.4261 29.6857 67.711C30.4745 67.9979 31.3015 68.1664 32.1397 68.211V69.479L33.8637 68.135C35.1164 67.9541 36.3131 67.4958 37.3663 66.7938C38.4195 66.0918 39.3027 65.1637 39.9517 64.077H49.8698V65.467H56.6948V61.904L58.8508 62.579C58.86 62.5804 58.8694 62.5804 58.8787 62.579H65.6117C66.0152 62.5095 66.3972 62.3482 66.7286 62.1078C67.0599 61.8673 67.3316 61.554 67.5228 61.192C67.5287 61.175 67.6867 60.773 68.5387 60.773H71.1857C71.3457 60.7381 71.4903 60.6528 71.5983 60.5297C71.7063 60.4066 71.7719 60.2522 71.7857 60.089H73.0938V64.589L72.7508 64.489L72.3508 65.925L73.0957 66.125L73.9068 64.812V62.088H76.3527C76.3657 62.0879 76.3787 62.0851 76.3905 62.0797C76.4024 62.0744 76.4131 62.0667 76.4218 62.057L77.3808 60.991C77.3961 60.9739 77.4045 60.9519 77.4047 60.929V60.395H78.1387C77.5298 61.6404 77.2141 63.0087 77.2157 64.395C77.2184 66.8173 78.1817 69.1396 79.8945 70.8525C81.6072 72.5655 83.9294 73.5291 86.3517 73.532C88.5055 73.5281 90.5889 72.7647 92.2352 71.3759C93.8814 69.9872 94.985 68.0623 95.3517 65.94H101.726C102.092 68.0623 103.196 69.9872 104.842 71.3759C106.489 72.7647 108.572 73.5281 110.726 73.532C112.889 73.5291 114.981 72.7598 116.631 71.3606C118.281 69.9613 119.382 68.0228 119.738 65.889L122.309 63.318L124.84 64.583V67.96C124.84 67.9738 124.843 67.9874 124.849 67.9998C124.855 68.0123 124.863 68.0232 124.874 68.032L125.874 68.868C125.89 68.8817 125.911 68.8891 125.933 68.889H136.145C136.153 68.8901 136.161 68.8901 136.17 68.889L141.941 67.289C141.961 67.2834 141.979 67.2712 141.991 67.2543C142.003 67.2374 142.009 67.2169 142.009 67.196L141.588 55.642ZM61.6948 44.806L58.7608 43.64L55.7887 37.881V34.281H75.4958V43.561C71.3568 44.024 68.1538 44.399 67.3078 44.543C67.0803 44.5879 66.8593 44.6608 66.6497 44.76L63.9078 44.96H62.0917L62.0337 44.937V44.802L61.6948 44.806ZM72.4037 22.023V30.052H55.7887V22.023H72.4037ZM91.7177 22.023C92.5827 23.467 93.7178 25.368 94.8758 27.302V30.052H76.4168V22.023H91.7177ZM76.4178 21.268V18.33C82.1568 18.311 87.2288 18.296 87.9428 18.296C88.3859 18.3035 88.8209 18.4154 89.2126 18.6227C89.6042 18.83 89.9414 19.1268 90.1967 19.489L91.2647 21.268H76.4178ZM73.1587 30.974H75.4958V32.443H73.1587V30.974ZM76.4178 30.974H94.8748V32.443H76.4168L76.4178 30.974ZM97.0638 30.974L97.9357 32.443H95.6308V30.974H97.0638ZM95.6308 30.052V28.567L96.5158 30.052H95.6308ZM99.0228 34.285C99.4748 35.056 99.7937 35.608 99.9147 35.834C100.082 36.243 100.216 36.6651 100.315 37.096V40.887C96.0867 41.333 84.6867 42.542 76.4147 43.461V34.284L99.0228 34.285ZM104.888 36.514L106.294 36.749L107.684 38.991C107.653 39.035 107.635 39.064 107.635 39.064C107.635 39.064 106.949 41.506 106.364 41.807C106.129 41.928 105.848 42.067 105.595 42.221C105.579 42.203 105.564 42.185 105.547 42.168C104.647 41.268 101.984 40.713 101.984 40.713L101.24 40.791V37.041C101.24 37.0049 101.235 36.969 101.227 36.934C101.107 36.4111 100.941 35.8998 100.732 35.406C100.632 35.22 100.407 34.828 100.091 34.284H103.726L104.888 36.514ZM99.0077 32.443C98.0547 30.831 96.8338 28.781 95.6308 26.767V22.023H97.3307L102.762 32.443H99.0077ZM94.8758 25.503C94.1238 24.244 93.4048 23.044 92.7928 22.022H94.8758V25.503ZM75.4967 30.052H73.1597V22.023H75.4967V30.052ZM55.7897 30.974H72.4047V32.443H55.7897V30.974ZM64.5518 45.841C64.4908 45.868 64.4297 45.893 64.3677 45.917H63.5068L64.5518 45.841ZM102.644 45.352H105.127V45.917H95.5547L102.644 45.352ZM106.305 45.571C106.368 45.5912 106.432 45.6076 106.497 45.62C107.969 45.871 110.929 45.42 111.866 44.181C112.009 43.9898 112.14 43.7893 112.257 43.581L115.829 45.918H106.305V45.571ZM118.736 22.022V32.442H117.51L110.361 22.022H118.736ZM91.4357 6.383C91.4357 6.383 93.3448 7.367 93.2048 7.707C93.1328 7.884 92.8768 9.09798 92.6468 10.226L90.8327 6.293C91.1707 6.352 91.4338 6.383 91.4338 6.383H91.4357ZM91.1857 8.60699L92.4297 11.307C92.3197 11.861 92.2427 12.254 92.2427 12.254L96.9428 21.272H92.3427C91.5877 20.012 91.0708 19.15 90.9858 19.009C90.6467 18.5137 90.1938 18.107 89.665 17.8231C89.1362 17.5391 88.5469 17.3861 87.9467 17.377C87.5327 17.377 85.6518 17.382 83.0278 17.39L91.1857 8.60699ZM56.5927 19.158C57.1167 18.6812 57.7945 18.4083 58.5027 18.389H58.5137L75.4977 18.332V21.267H55.7978C55.78 20.488 56.0642 19.7323 56.5907 19.158H56.5927ZM52.9837 32.443L51.2758 29.134V22.023H54.8677V32.443H52.9837ZM53.9347 34.285H54.8687V36.094L53.9347 34.285ZM57.7077 43.22C57.1613 43.0656 56.6795 42.7388 56.3339 42.2883C55.9883 41.8378 55.7974 41.2877 55.7897 40.72C55.7897 40.711 55.7897 40.701 55.7897 40.692V38.726L58.2117 43.419L57.7077 43.22ZM59.4467 44.964L59.4078 44.888L59.5998 44.964H59.4467ZM50.2067 55.445V50.932H56.3637V55.444L50.2067 55.445ZM56.3637 55.779V60.291H50.2067V55.779H56.3637ZM50.2067 50.459V46.104H56.3637V50.459H50.2067ZM42.4577 26.202C42.9612 25.8689 43.3602 25.4002 43.6087 24.85C43.6097 24.8424 43.6097 24.8346 43.6087 24.827L43.7518 22.619H45.5657L45.8658 22.919L49.6248 46.019C49.6284 46.0408 49.6396 46.0606 49.6564 46.0749C49.6733 46.0892 49.6946 46.097 49.7167 46.097H49.8658V50.452H44.4917C44.4795 50.452 44.4674 50.4544 44.4561 50.4591C44.4448 50.4637 44.4346 50.4706 44.426 50.4792C44.4173 50.4879 44.4105 50.4981 44.4058 50.5094C44.4011 50.5207 44.3987 50.5328 44.3987 50.545V53.162H42.0807L42.1697 46.785L42.4577 26.202ZM41.8927 53.221L41.3727 53.734H34.7267L35.1038 46.986H41.9798L41.8927 53.221ZM39.5757 41.151C39.6429 41.0765 39.7251 41.017 39.8167 40.9761C39.9083 40.9353 40.0074 40.9142 40.1077 40.914H42.0678L42.0218 44.208H38.8488C38.8478 43.76 38.8977 41.838 39.5717 41.152L39.5757 41.151ZM36.9037 44.402H42.0197L41.9867 46.793H36.7248L36.9037 44.402ZM35.7547 46.793H34.9197L34.5378 53.63C33.3797 51.7866 31.9541 50.1254 30.3078 48.701L30.5258 42.756L34.9407 42.483L35.7547 46.793ZM3.11077 40.833C3.39977 39.084 5.7617 29.753 6.3427 28.841C6.68827 28.2418 7.14888 27.7167 7.69805 27.2961C8.24722 26.8755 8.87419 26.5675 9.54277 26.39C11.0898 26.09 20.2917 25.809 20.3897 25.806C21.0331 25.7275 21.6848 25.8564 22.2498 26.174C22.3244 26.2394 22.3836 26.3204 22.4231 26.4114C22.4627 26.5023 22.4818 26.6008 22.4788 26.7C22.4788 27.865 21.6667 45.112 21.6277 45.952C21.5959 45.9957 21.5675 46.0419 21.5428 46.09C18.3908 46.222 15.4918 46.348 15.0368 46.39C13.1021 46.7103 11.3269 47.6592 9.98577 49.09C8.80353 50.3669 7.96592 51.9238 7.55181 53.614L2.65972 53.735V52.895C2.65872 52.792 2.81072 42.627 3.10772 40.832L3.11077 40.833ZM2.66069 53.922L7.70378 53.797L7.7188 53.725C8.12026 52.0442 8.94656 50.4947 10.1187 49.225C11.4325 47.8291 13.1653 46.8991 15.0547 46.576C15.5037 46.537 18.3458 46.413 21.4548 46.283C21.1646 47.1702 21.0372 48.1025 21.0788 49.035C18.4998 49.176 16.0047 49.353 14.5617 49.561C10.7617 50.109 8.77673 56.632 8.54973 57.422C6.57968 57.503 4.60645 57.3925 2.65776 57.092L2.66069 53.922ZM21.6607 46.27C25.4347 46.113 29.5338 45.95 30.2208 45.923L30.1208 48.656C29.4678 48.676 25.2927 48.804 21.2647 49.022C21.2151 48.0876 21.3497 47.1525 21.6607 46.27ZM35.6607 26.164C36.5747 27.593 35.2437 41.122 35.1277 42.285L30.5347 42.569L31.2067 24.523C31.7737 24.561 34.7997 24.826 35.6557 26.164H35.6607ZM0.721729 52.604C0.689001 48.6643 0.990102 44.7289 1.62175 40.84L1.8698 39.879L2.52275 38.57C2.54975 38.488 5.16978 30.328 5.59978 29.139C6.35205 27.6413 7.53869 26.4054 9.00469 25.593C9.80843 25.1085 10.7053 24.7987 11.6368 24.684C11.8138 24.684 29.2768 24.216 30.2138 24.216C30.8628 24.216 31.0137 24.363 31.0137 24.416L30.3458 42.664V42.764L30.2367 45.733C29.6037 45.758 25.5448 45.919 21.7718 46.076C21.7784 46.0655 21.7858 46.0555 21.7938 46.046L21.8167 46.021V45.986C21.8247 45.805 22.6697 27.886 22.6697 26.695C22.6725 26.5699 22.648 26.4457 22.5979 26.3311C22.5479 26.2164 22.4733 26.114 22.3797 26.031C21.7778 25.6739 21.074 25.5279 20.3797 25.616C20.0007 25.628 11.0707 25.904 9.50872 26.203C8.81512 26.3851 8.16446 26.7028 7.59429 27.1378C7.02412 27.5727 6.5457 28.1162 6.18669 28.737C5.58669 29.674 3.24178 38.9 2.92778 40.799C2.64078 42.538 2.49273 51.718 2.47673 52.799H0.912769C0.886584 52.8011 0.860282 52.7975 0.83562 52.7885C0.810958 52.7794 0.788446 52.7651 0.769824 52.7466C0.751202 52.7281 0.736881 52.7057 0.72771 52.6811C0.718539 52.6565 0.714764 52.6302 0.716724 52.604H0.721729ZM9.19976 64.94L2.26274 64.726L1.00969 63.932V54.832L2.07878 54.481V53.556L1.00969 53.422V52.981H2.47576V57.22L2.53875 57.242C2.58175 57.257 3.64771 57.598 8.62371 57.598H8.69475L8.71379 57.53C8.73379 57.458 10.7497 50.289 14.5917 49.735C18.3687 49.191 29.3918 48.857 30.1738 48.835C36.9028 54.849 36.0918 59.454 35.9848 59.935L32.3057 61.727C31.7153 59.2206 30.2927 56.9884 28.2702 55.3947C26.2477 53.801 23.7447 52.9399 21.1697 52.952C18.134 52.9554 15.2235 54.1628 13.0768 56.3094C10.9301 58.4559 9.7225 61.3662 9.7188 64.402C9.7188 64.463 9.7188 64.523 9.7188 64.584V64.623L9.19976 64.94ZM21.1747 73.347C18.8037 73.3443 16.5306 72.4013 14.8541 70.7247C13.1775 69.0482 12.2344 66.775 12.2317 64.404C12.2344 62.033 13.1775 59.7598 14.8541 58.0833C16.5306 56.4067 18.8037 55.4636 21.1747 55.461C23.5458 55.4636 25.819 56.4067 27.4955 58.0833C29.1721 59.7598 30.1151 62.033 30.1177 64.404C30.1151 66.7759 29.1713 69.0498 27.4937 70.7265C25.8161 72.4032 23.5416 73.3457 21.1697 73.347H21.1747ZM29.7547 67.547C30.1235 66.5413 30.3118 65.4782 30.3107 64.407C30.3081 61.9845 29.3446 59.662 27.6316 57.9491C25.9187 56.2361 23.5962 55.2726 21.1738 55.27C18.9135 55.2728 16.7343 56.1122 15.0561 57.6263C13.3779 59.1403 12.3194 61.222 12.0848 63.47L9.9207 64.27C9.95958 61.3098 11.1619 58.4839 13.2676 56.4031C15.3734 54.3222 18.2134 53.1537 21.1738 53.15C23.7233 53.1389 26.2003 53.9984 28.1949 55.5864C30.1895 57.1744 31.5823 59.3958 32.1427 61.883V68.037C31.3255 67.991 30.5196 67.8249 29.7508 67.544L29.7547 67.547ZM32.3367 61.931L34.7928 60.731V67.172L32.3367 69.087V61.931ZM34.1688 67.908L34.9858 67.271V60.641L36.1108 60.093L36.1497 60.074L36.1618 60.033C36.1718 59.999 36.8158 57.585 34.7148 53.933H41.4517L42.0328 53.36H44.4977C44.5224 53.36 44.5461 53.3502 44.5635 53.3328C44.581 53.3153 44.5907 53.2917 44.5907 53.267V50.65H49.8718V54.726H41.2868L37.7527 56.112V64.088H39.7398C39.1291 65.0787 38.3174 65.9303 37.3571 66.5877C36.3968 67.2452 35.3092 67.694 34.1647 67.905L34.1688 67.908ZM37.9467 63.892V56.241L41.3057 54.917H49.8727V63.892H37.9467ZM50.2067 65.141V60.629H56.3637V65.141H50.2067ZM86.3498 73.35C83.9788 73.3474 81.7055 72.4043 80.029 70.7277C78.3524 69.0512 77.4094 66.778 77.4068 64.407C77.4094 62.036 78.3524 59.7628 80.029 58.0863C81.7055 56.4097 83.9788 55.4666 86.3498 55.464C88.7208 55.4666 90.9939 56.4097 92.6705 58.0863C94.347 59.7628 95.2901 62.036 95.2928 64.407C95.2893 66.7782 94.3454 69.0512 92.668 70.7272C90.9907 72.4032 88.7169 73.3454 86.3457 73.347L86.3498 73.35ZM110.731 73.35C108.36 73.3474 106.087 72.4043 104.41 70.7277C102.733 69.0512 101.79 66.778 101.788 64.407C101.79 62.036 102.733 59.7628 104.41 58.0863C106.087 56.4097 108.36 55.4666 110.731 55.464C113.102 55.4666 115.375 56.4097 117.051 58.0863C118.728 59.7628 119.671 62.036 119.674 64.407C119.67 66.7782 118.726 69.0512 117.049 70.7272C115.372 72.4032 113.098 73.3454 110.727 73.347L110.731 73.35ZM122.337 63.134C122.319 63.1254 122.3 63.1225 122.28 63.1258C122.261 63.129 122.243 63.1382 122.23 63.152L119.788 65.594C119.84 65.2008 119.867 64.8046 119.868 64.408C119.865 61.9855 118.902 59.663 117.189 57.9501C115.476 56.2371 113.153 55.2736 110.731 55.271C108.308 55.2736 105.986 56.2371 104.273 57.9501C102.56 59.663 101.596 61.9855 101.594 64.408C101.593 64.8628 101.627 65.3171 101.694 65.767H95.3827C95.4497 65.3171 95.4831 64.8628 95.4827 64.408C95.4801 61.9855 94.5166 59.663 92.8036 57.9501C91.0907 56.2371 88.7682 55.2736 86.3457 55.271C84.6687 55.2726 83.0246 55.7355 81.5929 56.6089C80.1613 57.4823 78.9975 58.7326 78.2288 60.223H77.3067C77.282 60.223 77.2585 60.2328 77.241 60.2502C77.2236 60.2677 77.2138 60.2913 77.2138 60.316V60.908L76.3067 61.917H73.9068V53.383H73.0957V59.914H71.6957C71.6711 59.914 71.6474 59.9238 71.6299 59.9412C71.6125 59.9587 71.6027 59.9823 71.6027 60.007C71.6081 60.1404 71.5681 60.2716 71.4893 60.3793C71.4105 60.487 71.2975 60.5648 71.1687 60.6H68.5397C67.5397 60.6 67.3548 61.122 67.3558 61.127C67.1768 61.4568 66.9267 61.7427 66.6237 61.9641C66.3207 62.1854 65.9724 62.3367 65.6038 62.407H58.8937L56.6938 61.719V50.645H61.9317C61.8517 51.4617 62.0539 52.2813 62.5047 52.967C62.6188 53.0929 62.7588 53.1928 62.915 53.2597C63.0711 53.3267 63.2398 53.3592 63.4097 53.355H66.5638C66.6812 53.3543 66.7973 53.3304 66.9054 53.2845C67.0136 53.2387 67.1116 53.1719 67.1938 53.088C67.7346 52.4051 67.9859 51.5372 67.8937 50.671H71.2737V53.263C71.2737 53.2877 71.2835 53.3113 71.3009 53.3288C71.3184 53.3462 71.3421 53.356 71.3667 53.356H75.0047C75.0216 53.3559 75.0382 53.3512 75.0527 53.3424C75.0671 53.3336 75.0789 53.321 75.0867 53.306L75.9388 51.674H104.518V53.263C104.518 53.2877 104.528 53.3113 104.545 53.3288C104.562 53.3462 104.586 53.356 104.611 53.356H107.854C107.866 53.3559 107.878 53.3535 107.89 53.349C108.649 53.0093 109.25 52.3922 109.569 51.624H119.504L124.841 56.465V64.385L122.337 63.134ZM136.137 68.716H125.971L125.027 67.929V56.429C125.027 56.416 125.024 56.4032 125.019 56.3913C125.014 56.3794 125.006 56.3688 124.997 56.36L119.602 51.467C119.585 51.4516 119.563 51.443 119.54 51.443H109.504C109.484 51.443 109.465 51.4491 109.45 51.4604C109.434 51.4717 109.422 51.4876 109.416 51.506C109.122 52.2444 108.556 52.8419 107.835 53.175H104.704V51.586C104.704 51.5613 104.694 51.5377 104.677 51.5202C104.659 51.5028 104.635 51.493 104.611 51.493H75.8827C75.8658 51.493 75.8492 51.4976 75.8348 51.5064C75.8203 51.5153 75.8084 51.5279 75.8007 51.543L74.9488 53.175H71.4598V50.583C71.4598 50.5708 71.4574 50.5587 71.4527 50.5474C71.448 50.5361 71.4412 50.5259 71.4325 50.5172C71.4239 50.5086 71.4137 50.5017 71.4024 50.4971C71.3911 50.4924 71.379 50.49 71.3667 50.49H67.8018C67.7896 50.49 67.7774 50.4924 67.7662 50.4971C67.7549 50.5017 67.7446 50.5086 67.736 50.5172C67.7274 50.5259 67.7205 50.5361 67.7159 50.5474C67.7112 50.5587 67.7088 50.5708 67.7088 50.583C67.7655 50.9999 67.7387 51.4239 67.6298 51.8303C67.521 52.2367 67.3323 52.6173 67.0748 52.95C66.9444 53.0882 66.7646 53.1691 66.5748 53.175H63.4137C63.2695 53.179 63.1261 53.1518 62.9933 53.0952C62.8606 53.0386 62.7416 52.9539 62.6447 52.847C62.2279 52.1635 62.0458 51.3626 62.1258 50.566C62.1269 50.5532 62.1254 50.5402 62.1213 50.528C62.1171 50.5158 62.1104 50.5045 62.1017 50.495C62.0931 50.4856 62.0826 50.4781 62.0709 50.4729C62.0592 50.4677 62.0465 50.4651 62.0337 50.465H56.6978V46.11H121.255L141.408 55.71L141.83 67.143L136.137 68.716Z" fill="#FFBC00" stroke="#FFBC00"/>
</svg>
